<svg xmlns="http://www.w3.org/2000/svg" id="Camada_11" viewBox="0 0 1623.327 305.988"><defs><style>      .cls-1 {        fill: #f9f9f9;      }      .cls-2 {        fill: #e85002;      }    </style></defs><g><path class="cls-1" d="M407.047,109.791c-36.329,0-64.051,31.635-64.051,69.387,0,38.281,24.139,69.653,58.554,69.653,16.252,0,29.157-7.18,37.524-18.876v15.419h32.264v-66.196c0-39.614-27.246-69.387-64.291-69.387ZM407.047,213.473c-17.447,0-30.113-15.419-30.113-34.029s12.666-34.029,30.113-34.029,30.352,15.419,30.352,34.029-12.905,34.029-30.352,34.029Z"></path><path class="cls-1" d="M641.975,108.993c-21.269,0-38,11.167-45.409,29.245-6.932-18.078-23.423-29.245-46.128-29.245-38.24,0-57.598,30.837-57.598,67.526v68.855h33.938v-62.742c0-19.937,7.408-36.951,26.29-36.951,18.403,0,26.287,16.748,26.287,36.951v62.742h33.938v-63.008c0-19.937,7.888-36.685,26.29-36.685,18.642,0,26.53,17.014,26.53,37.217v62.476h33.938v-68.855c0-36.688-19.598-67.526-58.077-67.526Z"></path><path class="cls-1" d="M785.601,110.057c-36.808,0-64.054,29.508-64.054,69.121v126.81h33.938v-69.121c8.843,7.443,20.077,12.23,32.027,12.23,36.805,0,62.14-28.713,62.14-69.919,0-37.752-27.485-69.121-64.051-69.121ZM785.601,213.473c-17.45,0-30.116-15.419-30.116-34.029s12.666-33.763,30.116-33.763,30.113,15.153,30.113,33.763-12.666,34.029-30.113,34.029Z"></path><rect class="cls-1" x="870.196" y="53.166" width="33.938" height="192.208"></rect><path class="cls-1" d="M985.866,108.993c-36.565,0-61.421,31.369-61.421,69.387,0,42.004,27.722,70.451,64.53,70.451,25.095,0,44.693-13.56,54.968-37.22l-26.051-14.621c-5.497,12.227-16.252,19.139-29.157,19.139-16.971,0-29.16-11.696-31.548-29.242h87.95v-11.167c0-35.89-21.749-66.728-59.273-66.728ZM958.62,165.884c2.391-13.291,12.189-23.926,27.009-23.926,14.337,0,24.376,10.369,25.811,23.926h-52.82Z"></path><path class="cls-1" d="M1094.607,151.795c0-6.912,6.213-11.433,14.577-11.433,9.562,0,18.166,4.521,21.988,14.092l25.095-15.685c-7.169-15.156-22.465-28.447-47.799-28.447-29.157,0-47.799,18.61-47.799,42.27,0,50.777,65.006,32.433,65.006,53.703,0,7.709-6.929,12.493-17.923,12.493-11.95,0-19.837-4.518-24.858-15.153l-25.095,15.685c9.799,19.674,27.009,29.777,51.625,29.777,27.006,0,50.19-17.014,50.19-43.6,0-49.45-65.006-32.436-65.006-53.703Z"></path><path class="cls-1" d="M1248.277,110.057c-12.908,0-24.619,4.518-33.462,11.698V53.166h-33.938v192.208h33.938v-64.068c0-20.738,11.234-35.624,28.201-35.624,17.21,0,26.29,16.482,26.29,35.093v64.334l33.938.266v-68.323c0-41.472-18.879-66.994-54.968-66.994Z"></path><path class="cls-1" d="M1346.733,47.315c-11.471,0-21.033,10.635-21.033,23.397,0,13.025,9.562,23.394,21.033,23.394s20.793-10.369,20.793-23.394c0-12.762-9.32-23.397-20.793-23.397Z"></path><rect class="cls-1" x="1329.766" y="113.777" width="33.938" height="131.597"></rect><path class="cls-1" d="M1571.141,145.681v-31.904h-41.826v-33.497h-33.938v33.497h-58.785v-7.443c0-14.887,7.888-22.064,20.793-22.064,6.213,0,13.385,1.862,18.882,5.582v-34.827c-5.976-2.922-14.101-4.518-21.988-4.518-34.654,0-51.625,24.724-51.625,56.359v6.912h-21.033v31.904h21.033v99.693h33.938v-99.693h58.785v47.586c0,32.965,16.971,55.83,51.145,55.83,8.367,0,18.642-2.128,24.619-6.383v-33.763c-5.737,3.989-14.58,6.383-21.509,6.383-12.429,0-20.317-8.507-20.317-23.131v-46.522h41.826Z"></path></g><path class="cls-2" d="M162.805,223.103c-6.872-4.673-15.081-7.096-23.376-6.584-3.137.194-6.329.575-9.57,1.151-12.449,2.213-23.283,9.366-31.626,18.866-7.382,8.406-18.21,13.713-30.277,13.713h0c-28.2,0-49.632-28.975-36.148-58.778,3.501-7.739,9.761-14.049,17.488-17.578,17.627-8.051,34.975-3.873,46.236,6.71,7.493,7.042,16.596,12.336,26.763,13.875.163.025.325.049.488.072,13.344,1.937,22.985-12.582,16.412-24.355l-34.48-61.756c-6.393-11.45-6.211-25.563.834-36.623,8.065-12.662,19.593-19.143,31.261-20.458v-.002s.001,0,.002.001c13.691-1.541,26.051,5.94,37.101,14.262,8.319,6.265,18.23,10.251,28.619,10.981,6.505.457,12.748.134,18.861-.887,9.473-1.582,18.082-6.38,24.944-13.101,11.239-11.009,28.899-15.488,46.845-7.289,7.726,3.53,13.985,9.841,17.486,17.58,13.48,29.802-7.951,58.774-36.15,58.774h0c-11.835,0-22.19-5.434-29.848-13.232-17.985-18.313-38.954-20.287-38.954-20.287h0c-6.463-.606-10.955,6.286-7.79,11.954l46.219,82.781c5.646,10.113,5.513,26.6-.659,36.4-9.547,15.159-24.013,21.564-37.822,20.908v.046c-.011-.016-.022-.032-.033-.048-11.693-.566-22.911-6.208-30.26-15.978-2.86-3.802-6.471-6.976-10.405-9.651l-2.16-1.469Z"></path></svg>